# Blender v2.77 (sub 0) OBJ File: ''
# www.blender.org
mtllib Highlight1.mtl
o CrossBar_(1)
v 0.103342 -0.085000 -0.222214
v 0.103342 0.125000 -0.222214
v 0.079850 0.125000 -0.213663
v 0.079850 -0.085000 -0.213663
v 0.103342 0.125000 -0.222214
v 0.240150 0.125000 0.153663
v 0.216658 0.125000 0.162214
v 0.079850 0.125000 -0.213663
v 0.240150 0.125000 0.153663
v 0.240150 -0.085000 0.153663
v 0.216658 -0.085000 0.162214
v 0.216658 0.125000 0.162214
v 0.240150 -0.085000 0.153663
v 0.103342 -0.085000 -0.222214
v 0.079850 -0.085000 -0.213663
v 0.216658 -0.085000 0.162214
v 0.079850 -0.085000 -0.213663
v 0.079850 0.125000 -0.213663
v 0.216658 0.125000 0.162214
v 0.216658 -0.085000 0.162214
v 0.240150 -0.085000 0.153663
v 0.240150 0.125000 0.153663
v 0.103342 0.125000 -0.222214
v 0.103342 -0.085000 -0.222214
vt 0.0000 0.0000
vt 0.0000 1.0000
vt 1.0000 1.0000
vt 1.0000 0.0000
vt 0.0000 0.0000
vt 0.0000 1.0000
vt 1.0000 1.0000
vt 1.0000 0.0000
vt 0.0000 0.0000
vt 0.0000 1.0000
vt 1.0000 1.0000
vt 1.0000 0.0000
vt 0.0000 0.0000
vt 0.0000 1.0000
vt 1.0000 1.0000
vt 1.0000 0.0000
vt 0.0000 0.0000
vt 0.0000 1.0000
vt 1.0000 1.0000
vt 1.0000 0.0000
vt 0.0000 0.0000
vt 0.0000 1.0000
vt 1.0000 1.0000
vt 1.0000 0.0000
vn 0.3420 -0.0000 0.9397
vn -0.0000 -1.0000 -0.0000
vn -0.3420 0.0000 -0.9397
vn -0.0000 1.0000 0.0000
vn 0.9397 0.0000 -0.3420
vn -0.9397 -0.0000 0.3420
usemtl gold.001
s 1
f 1/1/1 2/2/1 3/3/1
f 1/1/1 3/3/1 4/4/1
f 5/5/2 6/6/2 7/7/2
f 5/5/2 7/7/2 8/8/2
f 9/9/3 10/10/3 11/11/3
f 9/9/3 11/11/3 12/12/3
f 13/13/4 14/14/4 15/15/4
f 13/13/4 15/15/4 16/16/4
f 17/17/5 18/18/5 19/19/5
f 17/17/5 19/19/5 20/20/5
f 21/21/6 22/22/6 23/23/6
f 21/21/6 23/23/6 24/24/6
o CrossBar_(3)
v 0.105000 -0.085000 -0.207500
v 0.105000 0.125000 -0.207500
v 0.105000 0.125000 -0.232500
v 0.105000 -0.085000 -0.232500
v 0.105000 0.125000 -0.207500
v -0.105000 0.125000 -0.207500
v -0.105000 0.125000 -0.232500
v 0.105000 0.125000 -0.232500
v -0.105000 0.125000 -0.207500
v -0.105000 -0.085000 -0.207500
v -0.105000 -0.085000 -0.232500
v -0.105000 0.125000 -0.232500
v -0.105000 -0.085000 -0.207500
v 0.105000 -0.085000 -0.207500
v 0.105000 -0.085000 -0.232500
v -0.105000 -0.085000 -0.232500
v 0.105000 -0.085000 -0.232500
v 0.105000 0.125000 -0.232500
v -0.105000 0.125000 -0.232500
v -0.105000 -0.085000 -0.232500
v -0.105000 -0.085000 -0.207500
v -0.105000 0.125000 -0.207500
v 0.105000 0.125000 -0.207500
v 0.105000 -0.085000 -0.207500
vt 0.0000 0.0000
vt 0.0000 1.0000
vt 1.0000 1.0000
vt 1.0000 0.0000
vt 0.0000 0.0000
vt 0.0000 1.0000
vt 1.0000 1.0000
vt 1.0000 0.0000
vt 0.0000 0.0000
vt 0.0000 1.0000
vt 1.0000 1.0000
vt 1.0000 0.0000
vt 0.0000 0.0000
vt 0.0000 1.0000
vt 1.0000 1.0000
vt 1.0000 0.0000
vt 0.0000 0.0000
vt 0.0000 1.0000
vt 1.0000 1.0000
vt 1.0000 0.0000
vt 0.0000 0.0000
vt 0.0000 1.0000
vt 1.0000 1.0000
vt 1.0000 0.0000
vn -1.0000 -0.0000 0.0000
vn 0.0000 -1.0000 -0.0000
vn 1.0000 0.0000 0.0000
vn 0.0000 1.0000 0.0000
vn 0.0000 -0.0000 1.0000
vn 0.0000 0.0000 -1.0000
usemtl gold.001
s 1
f 25/25/7 26/26/7 27/27/7
f 25/25/7 27/27/7 28/28/7
f 29/29/8 30/30/8 31/31/8
f 29/29/8 31/31/8 32/32/8
f 33/33/9 34/34/9 35/35/9
f 33/33/9 35/35/9 36/36/9
f 37/37/10 38/38/10 39/39/10
f 37/37/10 39/39/10 40/40/10
f 41/41/11 42/42/11 43/43/11
f 41/41/11 43/43/11 44/44/11
f 45/45/12 46/46/12 47/47/12
f 45/45/12 47/47/12 48/48/12
o CrossBar_(2)
v 0.220000 -0.085000 0.162500
v 0.220000 0.125000 0.162500
v 0.220000 0.125000 0.137500
v 0.220000 -0.085000 0.137500
v 0.220000 0.125000 0.162500
v -0.220000 0.125000 0.162500
v -0.220000 0.125000 0.137500
v 0.220000 0.125000 0.137500
v -0.220000 0.125000 0.162500
v -0.220000 -0.085000 0.162500
v -0.220000 -0.085000 0.137500
v -0.220000 0.125000 0.137500
v -0.220000 -0.085000 0.162500
v 0.220000 -0.085000 0.162500
v 0.220000 -0.085000 0.137500
v -0.220000 -0.085000 0.137500
v 0.220000 -0.085000 0.137500
v 0.220000 0.125000 0.137500
v -0.220000 0.125000 0.137500
v -0.220000 -0.085000 0.137500
v -0.220000 -0.085000 0.162500
v -0.220000 0.125000 0.162500
v 0.220000 0.125000 0.162500
v 0.220000 -0.085000 0.162500
vt 0.0000 0.0000
vt 0.0000 1.0000
vt 1.0000 1.0000
vt 1.0000 0.0000
vt 0.0000 0.0000
vt 0.0000 1.0000
vt 1.0000 1.0000
vt 1.0000 0.0000
vt 0.0000 0.0000
vt 0.0000 1.0000
vt 1.0000 1.0000
vt 1.0000 0.0000
vt 0.0000 0.0000
vt 0.0000 1.0000
vt 1.0000 1.0000
vt 1.0000 0.0000
vt 0.0000 0.0000
vt 0.0000 1.0000
vt 1.0000 1.0000
vt 1.0000 0.0000
vt 0.0000 0.0000
vt 0.0000 1.0000
vt 1.0000 1.0000
vt 1.0000 0.0000
vn -1.0000 0.0000 0.0000
vn 0.0000 -1.0000 -0.0000
vn 1.0000 0.0000 0.0000
vn 0.0000 1.0000 0.0000
vn 0.0000 -0.0000 1.0000
vn 0.0000 0.0000 -1.0000
usemtl gold.001
s 1
f 49/49/13 50/50/13 51/51/13
f 49/49/13 51/51/13 52/52/13
f 53/53/14 54/54/14 55/55/14
f 53/53/14 55/55/14 56/56/14
f 57/57/15 58/58/15 59/59/15
f 57/57/15 59/59/15 60/60/15
f 61/61/16 62/62/16 63/63/16
f 61/61/16 63/63/16 64/64/16
f 65/65/17 66/66/17 67/67/17
f 65/65/17 67/67/17 68/68/17
f 69/69/18 70/70/18 71/71/18
f 69/69/18 71/71/18 72/72/18
o CrossBar.001
v -0.079850 -0.085000 -0.213663
v -0.079850 0.125000 -0.213663
v -0.103342 0.125000 -0.222214
v -0.103342 -0.085000 -0.222214
v -0.079850 0.125000 -0.213663
v -0.216658 0.125000 0.162214
v -0.240150 0.125000 0.153663
v -0.103342 0.125000 -0.222214
v -0.216658 0.125000 0.162214
v -0.216658 -0.085000 0.162214
v -0.240150 -0.085000 0.153663
v -0.240150 0.125000 0.153663
v -0.216658 -0.085000 0.162214
v -0.079850 -0.085000 -0.213663
v -0.103342 -0.085000 -0.222214
v -0.240150 -0.085000 0.153663
v -0.103342 -0.085000 -0.222214
v -0.103342 0.125000 -0.222214
v -0.240150 0.125000 0.153663
v -0.240150 -0.085000 0.153663
v -0.216658 -0.085000 0.162214
v -0.216658 0.125000 0.162214
v -0.079850 0.125000 -0.213663
v -0.079850 -0.085000 -0.213663
vt 0.0000 0.0000
vt 0.0000 1.0000
vt 1.0000 1.0000
vt 1.0000 0.0000
vt 0.0000 0.0000
vt 0.0000 1.0000
vt 1.0000 1.0000
vt 1.0000 0.0000
vt 0.0000 0.0000
vt 0.0000 1.0000
vt 1.0000 1.0000
vt 1.0000 0.0000
vt 0.0000 0.0000
vt 0.0000 1.0000
vt 1.0000 1.0000
vt 1.0000 0.0000
vt 0.0000 0.0000
vt 0.0000 1.0000
vt 1.0000 1.0000
vt 1.0000 0.0000
vt 0.0000 0.0000
vt 0.0000 1.0000
vt 1.0000 1.0000
vt 1.0000 0.0000
vn -0.3420 -0.0000 0.9397
vn 0.0000 -1.0000 -0.0000
vn 0.3420 0.0000 -0.9397
vn 0.0000 1.0000 0.0000
vn 0.9397 -0.0000 0.3420
vn -0.9397 0.0000 -0.3420
usemtl gold.001
s 1
f 73/73/19 74/74/19 75/75/19
f 73/73/19 75/75/19 76/76/19
f 77/77/20 78/78/20 79/79/20
f 77/77/20 79/79/20 80/80/20
f 81/81/21 82/82/21 83/83/21
f 81/81/21 83/83/21 84/84/21
f 85/85/22 86/86/22 87/87/22
f 85/85/22 87/87/22 88/88/22
f 89/89/23 90/90/23 91/91/23
f 89/89/23 91/91/23 92/92/23
f 93/93/24 94/94/24 95/95/24
f 93/93/24 95/95/24 96/96/24
