# Blender v2.79 (sub 0) OBJ File: 'highlight.obj'
# www.blender.org
o Plane
v 0.856332 -0.030000 1.225600
v 0.117884 -0.030000 -0.454400
v 0.856332 -0.030000 0.994054
v 0.749403 -0.030000 0.994054
v 0.749403 -0.030000 0.793600
v 0.645369 -0.030000 0.793600
v 0.645369 -0.030000 0.585600
v 0.539899 -0.030000 0.585600
v 0.539899 -0.030000 0.377600
v 0.432056 -0.030000 0.377600
v 0.432056 -0.030000 0.169600
v 0.324018 -0.030000 0.169600
v 0.324018 -0.030000 -0.038400
v 0.219357 -0.030000 -0.038400
v 0.219357 -0.030000 -0.230400
v 0.117884 -0.030000 -0.230400
v 0.000000 -0.030000 1.225600
v -0.856332 -0.030000 1.225600
v 0.000000 -0.030000 -0.454400
v -0.117884 -0.030000 -0.454400
v -0.856332 -0.030000 0.994054
v -0.749403 -0.030000 0.994054
v -0.749403 -0.030000 0.793600
v -0.645369 -0.030000 0.793600
v -0.645369 -0.030000 0.585600
v -0.539899 -0.030000 0.585600
v -0.539899 -0.030000 0.377600
v -0.432056 -0.030000 0.377600
v -0.432056 -0.030000 0.169600
v -0.324018 -0.030000 0.169600
v -0.324018 -0.030000 -0.038400
v -0.219357 -0.030000 -0.038400
v -0.219357 -0.030000 -0.230400
v -0.117884 -0.030000 -0.230400
v 0.856332 0.030000 1.225600
v 0.117884 0.030000 -0.454400
v 0.856332 0.030000 0.994054
v 0.749403 0.030000 0.994054
v 0.749403 0.030000 0.793600
v 0.645369 0.030000 0.793600
v 0.645369 0.030000 0.585600
v 0.539899 0.030000 0.585600
v 0.539899 0.030000 0.377600
v 0.432056 0.030000 0.377600
v 0.432056 0.030000 0.169600
v 0.324018 0.030000 0.169600
v 0.324018 0.030000 -0.038400
v 0.219357 0.030000 -0.038400
v 0.219357 0.030000 -0.230400
v 0.117884 0.030000 -0.230400
v 0.000000 0.030000 1.225600
v -0.856332 0.030000 1.225600
v 0.000000 0.030000 -0.454400
v -0.117884 0.030000 -0.454400
v -0.856332 0.030000 0.994054
v -0.749403 0.030000 0.994054
v -0.749403 0.030000 0.793600
v -0.645369 0.030000 0.793600
v -0.645369 0.030000 0.585600
v -0.539899 0.030000 0.585600
v -0.539899 0.030000 0.377600
v -0.432056 0.030000 0.377600
v -0.432056 0.030000 0.169600
v -0.324018 0.030000 0.169600
v -0.324018 0.030000 -0.038400
v -0.219357 0.030000 -0.038400
v -0.219357 0.030000 -0.230400
v -0.117884 0.030000 -0.230400
vn 0.0000 -1.0000 0.0000
vn 0.0000 1.0000 0.0000
vn 0.0000 0.0000 1.0000
vn 1.0000 0.0000 0.0000
vn 0.0000 0.0000 -1.0000
vn -1.0000 0.0000 0.0000
s off
f 19//1 2//1 16//1 15//1 14//1 13//1 12//1 11//1 10//1 9//1 8//1 7//1 6//1 5//1 4//1 3//1 1//1 17//1
f 19//1 17//1 18//1 21//1 22//1 23//1 24//1 25//1 26//1 27//1 28//1 29//1 30//1 31//1 32//1 33//1 34//1 20//1
f 53//2 51//2 35//2 37//2 38//2 39//2 40//2 41//2 42//2 43//2 44//2 45//2 46//2 47//2 48//2 49//2 50//2 36//2
f 53//2 54//2 68//2 67//2 66//2 65//2 64//2 63//2 62//2 61//2 60//2 59//2 58//2 57//2 56//2 55//2 52//2 51//2
f 17//3 1//3 35//3 51//3
f 16//4 2//4 36//4 50//4
f 2//5 19//5 53//5 36//5
f 1//4 3//4 37//4 35//4
f 3//5 4//5 38//5 37//5
f 4//4 5//4 39//4 38//4
f 5//5 6//5 40//5 39//5
f 6//4 7//4 41//4 40//4
f 7//5 8//5 42//5 41//5
f 8//4 9//4 43//4 42//4
f 9//5 10//5 44//5 43//5
f 10//4 11//4 45//4 44//4
f 11//5 12//5 46//5 45//5
f 12//4 13//4 47//4 46//4
f 13//5 14//5 48//5 47//5
f 14//4 15//4 49//4 48//4
f 15//5 16//5 50//5 49//5
f 18//3 17//3 51//3 52//3
f 20//6 34//6 68//6 54//6
f 19//5 20//5 54//5 53//5
f 21//6 18//6 52//6 55//6
f 22//5 21//5 55//5 56//5
f 23//6 22//6 56//6 57//6
f 24//5 23//5 57//5 58//5
f 25//6 24//6 58//6 59//6
f 26//5 25//5 59//5 60//5
f 27//6 26//6 60//6 61//6
f 28//5 27//5 61//5 62//5
f 29//6 28//6 62//6 63//6
f 30//5 29//5 63//5 64//5
f 31//6 30//6 64//6 65//6
f 32//5 31//5 65//5 66//5
f 33//6 32//6 66//6 67//6
f 34//5 33//5 67//5 68//5
